# xmcd
# Copyright (C) 1995-1998 Ti Kan
#
# Track frame offsets:
#       150
#       31105
#       40929
#       64771
#       94279
#       105517
#       115576
#       144160
#       153565
#       186555
#       209805
#
# Disc length: 3034 seconds
#
# Revision: 0
# Processed by: cddbd v1.5.2PL0 Copyright (c) Steve Scherf et al.
# Submitted via: CD-Transfer v1.0
#
DISCID=980bd80b
DTITLE=Slaraffenland - Private Cinema
DYEAR=2007
DGENRE=
TTITLE0=Sleep Tight
TTITLE1=Show Me The Way
TTITLE2=Polaroids
TTITLE3=Thisone Will Kill Us
TTITLE4=The Run Up
TTITLE5=Rod
TTITLE6=Watch Out
TTITLE7=Gron
TTITLE8=You Win
TTITLE9=Ghosts
TTITLE10=How Far Would You Go
EXTD=
EXTT0=
EXTT1=
EXTT2=
EXTT3=
EXTT4=
EXTT5=
EXTT6=
EXTT7=
EXTT8=
EXTT9=
EXTT10=
PLAYORDER=
